<?xml version="1.0" encoding="UTF-8" standalone="no"?>
<!-- Created with Inkscape (http://www.inkscape.org/) -->

<svg
   width="500"
   height="160"
   id="svg4066"
   version="1.1"
   xmlns:xlink="http://www.w3.org/1999/xlink"
   xmlns="http://www.w3.org/2000/svg"
   xmlns:svg="http://www.w3.org/2000/svg"
   xmlns:rdf="http://www.w3.org/1999/02/22-rdf-syntax-ns#"
   xmlns:cc="http://creativecommons.org/ns#"
   xmlns:dc="http://purl.org/dc/elements/1.1/">
  <title
     id="title5838">Logo Insert After</title>
  <defs
     id="defs4068">
    <linearGradient
       xlink:href="#linearGradient4634"
       id="linearGradient4640"
       x1="831.94257"
       y1="-54.094429"
       x2="869.94257"
       y2="-16.094429"
       gradientUnits="userSpaceOnUse" />
    <linearGradient
       id="linearGradient4634">
      <stop
         style="stop-color:#646464;stop-opacity:1;"
         offset="0"
         id="stop4636" />
      <stop
         style="stop-color:#151515;stop-opacity:1;"
         offset="1"
         id="stop4638" />
    </linearGradient>
  </defs>
  <metadata
     id="metadata4071">
    <rdf:RDF>
      <cc:Work
         rdf:about="">
        <dc:format>image/svg+xml</dc:format>
        <dc:type
           rdf:resource="http://purl.org/dc/dcmitype/StillImage" />
        <dc:title>Logo Insert After</dc:title>
        <dc:creator>
          <cc:Agent>
            <dc:title>Nicolas Froidure</dc:title>
          </cc:Agent>
        </dc:creator>
        <dc:rights>
          <cc:Agent>
            <dc:title>Copyright Nicolas Froidure - All rights reserved</dc:title>
          </cc:Agent>
        </dc:rights>
      </cc:Work>
    </rdf:RDF>
  </metadata>
  <g
     id="layer1"
     transform="translate(2029.8477,1572.2303)">
    <rect
       style="fill:#f3fbfa;fill-opacity:1;stroke:none;stroke-width:5.15906"
       id="rect7303"
       width="500"
       height="160"
       x="-2029.8477"
       y="-1572.2303"
       rx="0"
       ry="0" />
    <rect
       style="opacity:0;fill:#fffeff;fill-opacity:1;stroke:none;stroke-width:0.439995;stroke-opacity:1"
       id="rect5802"
       width="560"
       height="100"
       x="-2029.8477"
       y="-1572.2303"
       ry="0" />
    <rect
       style="fill:#979797;fill-opacity:1;stroke:none;stroke-width:0.148745;stroke-opacity:1"
       id="rect622"
       width="92.170403"
       height="92.170403"
       x="-820.14819"
       y="-2246.9041"
       ry="15.202795"
       rx="15.202795"
       transform="rotate(-30.940983)" />
    <text
       xml:space="preserve"
       style="font-style:normal;font-variant:normal;font-weight:bold;font-stretch:normal;font-size:104.131px;line-height:125%;font-family:'Ubuntu Mono';-inkscape-font-specification:'Ubuntu Mono Bold';letter-spacing:0px;word-spacing:0px;fill:#f3fbfa;stroke:none;stroke-width:0.999991px;stroke-linecap:butt;stroke-linejoin:miter;stroke-opacity:1;fill-opacity:1"
       x="-1832.9122"
       y="-1452.994"
       id="text678"
       transform="scale(0.99795639,1.0020478)"><tspan
         id="tspan676"
         x="-1832.9122"
         y="-1452.994"
         style="font-style:normal;font-variant:normal;font-weight:bold;font-stretch:normal;font-family:'Ubuntu Mono';-inkscape-font-specification:'Ubuntu Mono Bold';fill:#f3fbfa;stroke:none;stroke-width:0.999991px;fill-opacity:1">4</tspan></text>
    <path
       d="m -1755.4002,-1513.7373 -0.1397,-0.5578 v -0.2788 q -1.1176,-2.7886 0.9778,-3.9041 2.2351,-1.2549 3.4922,0.5577 1.2573,1.6733 1.397,3.4859 0.2794,1.8125 0.1397,3.7646 -0.2794,3.7645 -1.2572,7.6687 6.5654,-7.1111 20.814,-17.2895 1.6763,-1.2549 2.7938,-1.6731 1.1175,-0.4183 2.2351,-0.9761 1.2572,-0.5577 2.235,-0.1394 1.1175,0.4183 1.5366,1.2549 1.1175,2.3704 -1.3969,3.904 -6.5655,2.6493 -18.8583,13.8037 -3.2129,2.928 -5.1686,5.0196 1.1175,1.1153 4.4701,2.3702 3.3526,1.1155 5.3083,2.0915 2.0954,0.8366 5.4479,3.0675 3.3526,2.0915 6.7052,4.0435 8.1021,4.6012 14.8072,5.1589 2.3749,0.976 2.3749,2.9281 0,2.2308 -2.5145,2.6491 -12.9913,-1.3943 -27.2398,-11.5727 -3.2129,-2.2309 -5.7273,-3.0675 -2.3748,-0.8365 -3.7717,-1.3943 -3.4923,-1.5338 -5.0289,-3.4857 -1.1175,7.5292 -2.235,15.0585 -0.9779,7.5293 -2.0955,15.0585 -0.6984,1.952 -2.654,2.2309 -1.5367,-0.2789 -2.2351,-1.1155 -0.6985,-0.8365 -0.6985,-1.6731 1.1176,-8.7841 2.5145,-17.15 1.2572,-8.6448 2.0953,-14.5008 1.3969,-10.8756 1.6764,-15.3374 z"
       style="font-weight:bold;font-size:139.561px;line-height:125%;font-family:Karumbi;-inkscape-font-specification:Karumbi;letter-spacing:0px;word-spacing:0px;fill:#f45b69;stroke-width:0.999998px"
       id="path14153" />
    <path
       d="m -1703.0161,-1505.7898 q 1.2573,-2.3703 3.3527,-1.6731 2.235,0.6971 1.9557,3.2069 -2.0955,7.5292 -3.632,15.0585 -1.3969,7.3898 -3.4924,14.9191 -1.1174,2.6492 -3.4922,1.9521 -2.3747,-0.6972 -1.6763,-3.6252 0.6985,-2.7886 1.3969,-5.5773 0.8382,-2.928 1.5367,-5.7167 v -0.1394 q 1.1175,-4.6012 1.8159,-9.2024 0.8381,-4.7407 2.235,-9.2025 z m 7.264,-19.9386 q 2.3747,0.8366 2.3747,2.9281 0,2.0914 -2.5144,2.6491 h -0.5588 q -1.5366,-0.1394 -2.235,-0.976 -0.5588,-0.8365 -0.5588,-1.952 0.1397,-2.3704 2.9336,-2.6492 z"
       style="font-weight:bold;font-size:139.561px;line-height:125%;font-family:Karumbi;-inkscape-font-specification:Karumbi;letter-spacing:0px;word-spacing:0px;fill:#f45b69;stroke-width:0.999998px"
       id="path14155" />
    <path
       d="m -1673.8207,-1505.7898 q 1.6764,0 4.6098,2.9281 1.816,-3.0675 4.8893,-9.2024 3.0732,-6.2745 4.1907,-9.3419 1.1176,-3.0675 2.6542,-5.8562 1.5365,-1.1153 2.9335,-0.8365 1.3969,0.2789 2.0954,2.2308 0,4.6013 -1.6764,8.0871 -1.6763,3.4857 -2.7938,5.7167 -1.1175,2.2309 -2.0953,4.7406 -1.816,4.4618 -3.0732,11.1544 -1.1176,6.5533 -1.1176,9.3419 0,2.6492 0.9779,4.6012 0.9778,1.9521 3.0731,1.8126 2.2351,-0.2788 3.632,-0.6971 1.3969,-0.4183 2.7938,-0.5577 1.397,-0.2788 2.2351,0.4183 0.8382,0.5577 1.1175,1.3943 0.6985,2.0914 -1.6762,3.3463 -1.816,0.4183 -3.632,0.9761 -1.6763,0.5576 -3.9114,0.6971 -2.0953,0.1394 -4.051,-0.6971 -1.9557,-0.6972 -3.3526,-2.5098 -2.7939,-3.3464 -2.6541,-8.087 0,-3.4858 0.5587,-7.3898 -9.2196,15.6162 -17.3217,20.3569 -2.235,1.2549 -4.051,-0.5577 -3.3527,-5.2985 0.9778,-15.0586 2.6541,-5.8561 8.8006,-13.8037 0.8381,-1.1154 2.0953,-1.5337 1.2572,-0.5577 2.2351,-1.1154 0.9778,-0.5578 1.5365,-0.5578 z m -0.838,11.8516 q 1.6762,-2.7886 1.9556,-3.4857 0.4191,-0.6972 0.6984,-0.976 -0.2793,-0.1395 -0.4191,-0.1395 -0.1396,0 -0.4189,-0.1394 -0.2795,-0.4182 -1.1176,-0.976 -6.1464,3.904 -9.7784,14.6402 -0.9778,2.9281 -1.3969,5.4378 3.3526,-2.2309 10.4769,-14.3614 z"
       style="font-weight:bold;font-size:139.561px;line-height:125%;font-family:Karumbi;-inkscape-font-specification:Karumbi;letter-spacing:0px;word-spacing:0px;fill:#f45b69;stroke-width:0.999998px"
       id="path14157" />
    <path
       d="m -1643.2282,-1493.5198 q -2.2351,1.1154 -3.632,-0.2789 -1.5366,-1.5338 -0.4191,-3.7647 1.2572,-1.1154 4.4701,-3.0674 3.3526,-1.9521 6.7052,-3.0675 8.8005,-3.0675 9.6387,3.3463 0.2794,1.9521 -0.8382,3.9041 -1.1175,1.9521 -2.5144,3.904 -1.2572,1.8127 -2.3747,3.6253 -1.1176,1.8126 -0.8382,4.3223 0.2793,2.3703 2.2351,5.159 1.9556,2.7886 2.7938,4.4617 0.9778,1.6732 1.1175,2.0915 0.2794,0.5578 0.5587,1.1155 14.9471,-7.3898 36.0404,-14.7797 2.5145,-0.2789 3.2129,1.952 0.6985,2.0915 -1.6763,3.3464 -25.1444,8.6447 -35.9006,14.9191 1.1175,9.063 -6.8449,15.7557 -1.816,1.5337 -4.3304,1.6731 -2.3748,0.1395 -4.4702,-0.8365 -2.0953,-0.9761 -3.2129,-3.0675 -1.1175,-1.952 -0.2794,-4.1829 0.8382,-2.0915 1.816,-3.2069 1.1176,-1.1155 2.5145,-2.5098 2.5144,-2.7886 8.6609,-6.5533 -0.9779,-2.0914 -2.5145,-4.1829 -1.3969,-2.0914 -2.7938,-4.3224 -4.4702,-7.8081 -0.5588,-13.6642 3.4922,-5.0195 4.3304,-7.5293 -1.5366,-0.4183 -2.2351,0.2789 -4.7494,1.3944 -8.6607,5.159 z m 5.3082,37.7857 0.1396,1.1155 q 2.5145,1.1154 5.0289,-2.5098 1.9558,-2.7886 2.9336,-5.856 -5.0289,3.3462 -8.1021,7.2503 z"
       style="font-weight:bold;font-size:139.561px;line-height:125%;font-family:Karumbi;-inkscape-font-specification:Karumbi;letter-spacing:0px;word-spacing:0px;fill:#f45b69;stroke-width:0.999998px"
       id="path14159" />
    <g
       id="g1324"
       transform="translate(45.529686,-86.348708)"
       style="fill:#456990;fill-opacity:1">
      <rect
         style="fill:#456990;stroke-width:5.15906;fill-opacity:1"
         id="rect426"
         width="10"
         height="10"
         x="-2029.8477"
         y="-1422.2303" />
      <rect
         style="fill:#456990;stroke-width:5.15906;fill-opacity:1"
         id="rect536"
         width="10"
         height="10"
         x="-2029.8477"
         y="-1412.2303" />
      <rect
         style="fill:#456990;stroke-width:5.15906;fill-opacity:1"
         id="rect538"
         width="10"
         height="10"
         x="-2029.8477"
         y="-1392.2303" />
      <rect
         style="fill:#456990;stroke-width:5.15906;fill-opacity:1"
         id="rect540"
         width="10"
         height="10"
         x="-2019.8477"
         y="-1392.2303" />
      <rect
         style="fill:#456990;stroke-width:5.15906;fill-opacity:1"
         id="rect542"
         width="10"
         height="10"
         x="-2019.8477"
         y="-1432.2303" />
      <rect
         style="fill:#456990;stroke-width:5.15906;fill-opacity:1"
         id="rect546"
         width="10"
         height="10"
         x="-1979.8477"
         y="-1432.2303" />
      <rect
         style="fill:#456990;stroke-width:5.15906;fill-opacity:1"
         id="rect550"
         width="10"
         height="10"
         x="-1969.8477"
         y="-1422.2303" />
      <rect
         style="fill:#456990;stroke-width:5.15906;fill-opacity:1"
         id="rect552"
         width="10"
         height="10"
         x="-1969.8477"
         y="-1412.2303" />
      <rect
         style="fill:#456990;stroke-width:5.15906;fill-opacity:1"
         id="rect556"
         width="10"
         height="10"
         x="-1979.8477"
         y="-1392.2303" />
      <rect
         style="fill:#456990;stroke-width:5.15906;fill-opacity:1"
         id="rect558"
         width="10"
         height="10"
         x="-1989.8477"
         y="-1392.2303" />
      <rect
         style="fill:#456990;stroke-width:5.15906;fill-opacity:1"
         id="rect560"
         width="10"
         height="10"
         x="-1989.8477"
         y="-1422.2303" />
      <rect
         style="fill:#456990;stroke-width:5.15906;fill-opacity:1"
         id="rect562"
         width="10"
         height="10"
         x="-1989.8477"
         y="-1412.2303" />
      <rect
         style="fill:#456990;stroke-width:5.15906;fill-opacity:1"
         id="rect564"
         width="10"
         height="10"
         x="-1949.8477"
         y="-1432.2303" />
      <rect
         style="fill:#456990;stroke-width:5.15906;fill-opacity:1"
         id="rect566"
         width="10"
         height="10"
         x="-1939.8477"
         y="-1432.2303" />
      <rect
         style="fill:#456990;stroke-width:5.15906;fill-opacity:1"
         id="rect570"
         width="10"
         height="10"
         x="-1929.8477"
         y="-1422.2303" />
      <rect
         style="fill:#456990;stroke-width:5.15906;fill-opacity:1"
         id="rect572"
         width="10"
         height="10"
         x="-1929.8477"
         y="-1412.2303" />
      <rect
         style="fill:#456990;stroke-width:5.15906;fill-opacity:1"
         id="rect576"
         width="10"
         height="10"
         x="-1939.8477"
         y="-1392.2303" />
      <rect
         style="fill:#456990;stroke-width:5.15906;fill-opacity:1"
         id="rect578"
         width="10"
         height="10"
         x="-1949.8477"
         y="-1392.2303" />
      <rect
         style="fill:#456990;stroke-width:5.15906;fill-opacity:1"
         id="rect580"
         width="10"
         height="10"
         x="-1949.8477"
         y="-1422.2303" />
      <rect
         style="fill:#456990;stroke-width:5.15906;fill-opacity:1"
         id="rect582"
         width="10"
         height="10"
         x="-1949.8477"
         y="-1412.2303" />
      <rect
         style="fill:#456990;stroke-width:5.15906;fill-opacity:1"
         id="rect586"
         width="10"
         height="10"
         x="-1899.8477"
         y="-1432.2303" />
      <rect
         style="fill:#456990;stroke-width:5.15906;fill-opacity:1"
         id="rect588"
         width="10"
         height="10"
         x="-1889.8477"
         y="-1432.2303" />
      <rect
         style="fill:#456990;stroke-width:5.15906;fill-opacity:1"
         id="rect594"
         width="10"
         height="10"
         x="-1889.8477"
         y="-1392.2303" />
      <rect
         style="fill:#456990;stroke-width:5.15906;fill-opacity:1"
         id="rect596"
         width="10"
         height="10"
         x="-1899.8477"
         y="-1392.2303" />
      <rect
         style="fill:#456990;stroke-width:5.15906;fill-opacity:1"
         id="rect598"
         width="10"
         height="10"
         x="-1909.8477"
         y="-1392.2303" />
      <rect
         style="fill:#456990;stroke-width:5.15906;fill-opacity:1"
         id="rect600"
         width="10"
         height="10"
         x="-1909.8477"
         y="-1422.2303" />
      <rect
         style="fill:#456990;stroke-width:5.15906;fill-opacity:1"
         id="rect602"
         width="10"
         height="10"
         x="-1909.8477"
         y="-1412.2303" />
      <rect
         style="fill:#456990;stroke-width:5.15906;fill-opacity:1"
         id="rect604"
         width="10"
         height="10"
         x="-2009.8477"
         y="-1392.2303" />
      <rect
         style="fill:#456990;stroke-width:5.15906;fill-opacity:1"
         id="rect606"
         width="10"
         height="10"
         x="-2009.8477"
         y="-1432.2303" />
      <rect
         style="fill:#456990;stroke-width:5.15906;fill-opacity:1"
         id="rect608"
         width="10"
         height="10"
         x="-2029.8477"
         y="-1402.2303" />
      <rect
         style="fill:#456990;stroke-width:5.15906;fill-opacity:1"
         id="rect610"
         width="10"
         height="10"
         x="-1969.8477"
         y="-1402.2303" />
      <rect
         style="fill:#456990;stroke-width:5.15906;fill-opacity:1"
         id="rect612"
         width="10"
         height="10"
         x="-1989.8477"
         y="-1402.2303" />
      <rect
         style="fill:#456990;stroke-width:5.15906;fill-opacity:1"
         id="rect614"
         width="10"
         height="10"
         x="-1929.8477"
         y="-1402.2303" />
      <rect
         style="fill:#456990;stroke-width:5.15906;fill-opacity:1"
         id="rect616"
         width="10"
         height="10"
         x="-1949.8477"
         y="-1402.2303" />
      <rect
         style="fill:#456990;stroke-width:5.15906;fill-opacity:1"
         id="rect618"
         width="10"
         height="10"
         x="-1909.8477"
         y="-1402.2303" />
      <rect
         style="fill:#456990;stroke-width:5.15906;fill-opacity:1"
         id="rect620"
         width="10"
         height="10"
         x="-1899.8477"
         y="-1412.2303" />
    </g>
  </g>
</svg>
